{
  "accessors": [
    {
      "bufferView": 2,
      "componentType": 5126,
      "count": 702,
      "max": [
        0.43044090270996094,
        0.8174135684967041,
        0.2812339663505554
      ],
      "min": [
        -3.020744800567627,
        -0.8174260854721069,
        -0.15191355347633362
      ],
      "type": "VEC3"
    },
    {
      "bufferView": 2,
      "byteOffset": 8424,
      "componentType": 5126,
      "count": 702,
      "max": [
        0.999882161617279,
        1.0,
        0.9999874830245972
      ],
      "min": [
        -0.999882161617279,
        -1.0,
        -0.999289333820343
      ],
      "type": "VEC3"
    },
    {
      "bufferView": 1,
      "componentType": 5126,
      "count": 702,
      "max": [
        0.7105937004089355,
        0.9868870973587036
      ],
      "min": [
        0.03309885412454605,
        0.6772211194038391
      ],
      "type": "VEC2"
    },
    {
      "bufferView": 1,
      "byteOffset": 5616,
      "componentType": 5126,
      "count": 702,
      "max": [
        0.7105937004089355,
        0.9868870973587036
      ],
      "min": [
        0.03309885412454605,
        0.6772211194038391
      ],
      "type": "VEC2"
    },
    {
      "bufferView": 1,
      "byteOffset": 11232,
      "componentType": 5126,
      "count": 702,
      "max": [
        0.7105937004089355,
        0.9868870973587036
      ],
      "min": [
        0.03309885412454605,
        0.6772211194038391
      ],
      "type": "VEC2"
    },
    {
      "bufferView": 0,
      "componentType": 5125,
      "count": 1980,
      "type": "SCALAR"
    },
    {
      "bufferView": 2,
      "byteOffset": 16848,
      "componentType": 5126,
      "count": 2080,
      "max": [
        2.365478038787842,
        0.4946436882019043,
        0.019299916923046112
      ],
      "min": [
        -0.9114656448364258,
        -0.2651931345462799,
        -1.5209662914276123
      ],
      "type": "VEC3"
    },
    {
      "bufferView": 2,
      "byteOffset": 41808,
      "componentType": 5126,
      "count": 2080,
      "max": [
        0.9998832941055298,
        0.9998329281806946,
        0.9999984502792358
      ],
      "min": [
        -0.9999998807907104,
        -0.9194287657737732,
        -0.9999984502792358
      ],
      "type": "VEC3"
    },
    {
      "bufferView": 1,
      "byteOffset": 16848,
      "componentType": 5126,
      "count": 2080,
      "max": [
        0.9030758142471313,
        0.9795297384262085
      ],
      "min": [
        0.0211867094039917,
        0.09259261190891266
      ],
      "type": "VEC2"
    },
    {
      "bufferView": 1,
      "byteOffset": 33488,
      "componentType": 5126,
      "count": 2080,
      "max": [
        0.9030758142471313,
        0.9795297384262085
      ],
      "min": [
        0.0211867094039917,
        0.09259261190891266
      ],
      "type": "VEC2"
    },
    {
      "bufferView": 0,
      "byteOffset": 7920,
      "componentType": 5125,
      "count": 7116,
      "type": "SCALAR"
    },
    {
      "bufferView": 2,
      "byteOffset": 66768,
      "componentType": 5126,
      "count": 5895,
      "max": [
        2.382148265838623,
        0.457264244556427,
        0.11503203213214874
      ],
      "min": [
        -0.9653282165527344,
        -0.29486802220344543,
        -1.616698145866394
      ],
      "type": "VEC3"
    },
    {
      "bufferView": 2,
      "byteOffset": 137508,
      "componentType": 5126,
      "count": 5895,
      "max": [
        1.0,
        1.0,
        0.9999979138374329
      ],
      "min": [
        -1.0,
        -1.0,
        -0.9999979734420776
      ],
      "type": "VEC3"
    },
    {
      "bufferView": 1,
      "byteOffset": 50128,
      "componentType": 5126,
      "count": 5895,
      "max": [
        0.9983426332473755,
        0.9991706013679504
      ],
      "min": [
        0.00024038788978941739,
        0.0009934378322213888
      ],
      "type": "VEC2"
    },
    {
      "bufferView": 1,
      "byteOffset": 97288,
      "componentType": 5126,
      "count": 5895,
      "max": [
        0.9983426332473755,
        0.9991706013679504
      ],
      "min": [
        0.00024038788978941739,
        0.0009934378322213888
      ],
      "type": "VEC2"
    },
    {
      "bufferView": 1,
      "byteOffset": 144448,
      "componentType": 5126,
      "count": 5895,
      "max": [
        0.9983426332473755,
        0.9991706013679504
      ],
      "min": [
        0.00024038788978941739,
        0.0009934378322213888
      ],
      "type": "VEC2"
    },
    {
      "bufferView": 0,
      "byteOffset": 36384,
      "componentType": 5125,
      "count": 16551,
      "type": "SCALAR"
    },
    {
      "bufferView": 2,
      "byteOffset": 208248,
      "componentType": 5126,
      "count": 124,
      "max": [
        -0.7109865546226501,
        -0.008173435926437378,
        -0.0254194438457489
      ],
      "min": [
        -1.0000938177108765,
        -0.05974961817264557,
        -1.4762463569641113
      ],
      "type": "VEC3"
    },
    {
      "bufferView": 2,
      "byteOffset": 209736,
      "componentType": 5126,
      "count": 124,
      "max": [
        0.3966309726238251,
        0.8873094320297241,
        0.9956777095794678
      ],
      "min": [
        -0.8881033062934875,
        -0.8991125226020813,
        -0.9956774115562439
      ],
      "type": "VEC3"
    },
    {
      "bufferView": 1,
      "byteOffset": 191608,
      "componentType": 5126,
      "count": 124,
      "max": [
        0.876095175743103,
        0.7114598751068115
      ],
      "min": [
        0.6985745429992676,
        0.1633676439523697
      ],
      "type": "VEC2"
    },
    {
      "bufferView": 0,
      "byteOffset": 102588,
      "componentType": 5125,
      "count": 366,
      "type": "SCALAR"
    },
    {
      "bufferView": 2,
      "byteOffset": 211224,
      "componentType": 5126,
      "count": 342,
      "max": [
        -0.5456122159957886,
        -0.07193401455879211,
        0.003908336162567139
      ],
      "min": [
        -1.0006122589111328,
        -0.29315945506095886,
        -1.5055747032165527
      ],
      "type": "VEC3"
    },
    {
      "bufferView": 2,
      "byteOffset": 215328,
      "componentType": 5126,
      "count": 342,
      "max": [
        -0.11321023106575012,
        0.9485678672790527,
        0.9350990056991577
      ],
      "min": [
        -0.9999494552612305,
        -0.9716967940330505,
        -0.9351972937583923
      ],
      "type": "VEC3"
    },
    {
      "bufferView": 1,
      "byteOffset": 192600,
      "componentType": 5126,
      "count": 342,
      "max": [
        0.3841446042060852,
        0.9765892028808594
      ],
      "min": [
        0.008927092887461185,
        0.17384208738803864
      ],
      "type": "VEC2"
    },
    {
      "bufferView": 1,
      "byteOffset": 195336,
      "componentType": 5126,
      "count": 342,
      "max": [
        0.3841446042060852,
        0.9765892028808594
      ],
      "min": [
        0.008927092887461185,
        0.17384208738803864
      ],
      "type": "VEC2"
    },
    {
      "bufferView": 0,
      "byteOffset": 104052,
      "componentType": 5125,
      "count": 1464,
      "type": "SCALAR"
    },
    {
      "bufferView": 2,
      "byteOffset": 219432,
      "componentType": 5126,
      "count": 68,
      "max": [
        1.6649229526519775,
        0.4297042787075043,
        -0.05751749873161316
      ],
      "min": [
        0.9484856128692627,
        0.1773890256881714,
        -1.4441487789154053
      ],
      "type": "VEC3"
    },
    {
      "bufferView": 2,
      "byteOffset": 220248,
      "componentType": 5126,
      "count": 68,
      "max": [
        0.00820596981793642,
        0.5354198217391968,
        0.8797708749771118
      ],
      "min": [
        -0.03571228310465813,
        0.4740546941757202,
        -0.8797699809074402
      ],
      "type": "VEC3"
    },
    {
      "bufferView": 1,
      "byteOffset": 198072,
      "componentType": 5126,
      "count": 68,
      "max": [
        0.4720066785812378,
        0.1493910849094391
      ],
      "min": [
        0.22626230120658875,
        0.03354084491729736
      ],
      "type": "VEC2"
    },
    {
      "bufferView": 0,
      "byteOffset": 109908,
      "componentType": 5125,
      "count": 192,
      "type": "SCALAR"
    },
    {
      "bufferView": 2,
      "byteOffset": 221064,
      "componentType": 5126,
      "count": 190,
      "max": [
        2.423335552215576,
        -0.04530733823776245,
        0.021341845393180847
      ],
      "min": [
        1.8459527492523193,
        -0.24544352293014526,
        -1.5230079889297485
      ],
      "type": "VEC3"
    },
    {
      "bufferView": 2,
      "byteOffset": 223344,
      "componentType": 5126,
      "count": 190,
      "max": [
        0.9147486090660095,
        0.997963011264801,
        0.9846117496490479
      ],
      "min": [
        -0.02106606960296631,
        -0.8067042827606201,
        -0.9846152067184448
      ],
      "type": "VEC3"
    },
    {
      "bufferView": 1,
      "byteOffset": 198616,
      "componentType": 5126,
      "count": 190,
      "max": [
        0.9037234783172607,
        0.9773194789886475
      ],
      "min": [
        0.11240749061107635,
        0.009187038987874985
      ],
      "type": "VEC2"
    },
    {
      "bufferView": 1,
      "byteOffset": 200136,
      "componentType": 5126,
      "count": 190,
      "max": [
        0.9037234783172607,
        0.9773194789886475
      ],
      "min": [
        0.11240749061107635,
        0.009187038987874985
      ],
      "type": "VEC2"
    },
    {
      "bufferView": 0,
      "byteOffset": 110676,
      "componentType": 5125,
      "count": 762,
      "type": "SCALAR"
    },
    {
      "bufferView": 2,
      "byteOffset": 225624,
      "componentType": 5126,
      "count": 112,
      "max": [
        2.6504151821136475,
        0.05564066767692566,
        -0.05251874029636383
      ],
      "min": [
        2.4665703773498535,
        -0.03177785873413086,
        -1.4491480588912964
      ],
      "type": "VEC3"
    },
    {
      "bufferView": 2,
      "byteOffset": 226968,
      "componentType": 5126,
      "count": 112,
      "max": [
        0.9635828137397766,
        0.43581441044807434,
        0.9541921615600586
      ],
      "min": [
        0.2685442566871643,
        0.12816661596298218,
        -0.9541897773742676
      ],
      "type": "VEC3"
    },
    {
      "bufferView": 1,
      "byteOffset": 201656,
      "componentType": 5126,
      "count": 112,
      "max": [
        0.9925917387008667,
        0.3001413345336914
      ],
      "min": [
        0.5099444389343262,
        0.18304848670959473
      ],
      "type": "VEC2"
    },
    {
      "bufferView": 0,
      "byteOffset": 113724,
      "componentType": 5125,
      "count": 372,
      "type": "SCALAR"
    },
    {
      "bufferView": 2,
      "byteOffset": 228312,
      "componentType": 5126,
      "count": 20,
      "max": [
        2.634608745574951,
        0.03123912215232849,
        -0.22029122710227966
      ],
      "min": [
        2.623230218887329,
        0.016629666090011597,
        -1.2813754081726074
      ],
      "type": "VEC3"
    },
    {
      "bufferView": 2,
      "byteOffset": 228552,
      "componentType": 5126,
      "count": 20,
      "max": [
        0.9602558612823486,
        0.9947414994239807,
        0.5770081877708435
      ],
      "min": [
        0.10205588489770889,
        -0.7570636868476868,
        -0.5770834684371948
      ],
      "type": "VEC3"
    },
    {
      "bufferView": 1,
      "byteOffset": 202552,
      "componentType": 5126,
      "count": 20,
      "max": [
        0.9602339863777161,
        0.27328401803970337
      ],
      "min": [
        0.8786396384239197,
        0.25327226519584656
      ],
      "type": "VEC2"
    },
    {
      "bufferView": 0,
      "byteOffset": 115212,
      "componentType": 5125,
      "count": 72,
      "type": "SCALAR"
    },
    {
      "bufferView": 2,
      "byteOffset": 228792,
      "componentType": 5126,
      "count": 278,
      "max": [
        0.09723925590515137,
        0.19378137588500977,
        -0.08494038134813309
      ],
      "min": [
        -0.818385124206543,
        0.08436909317970276,
        -1.4167263507843018
      ],
      "type": "VEC3"
    },
    {
      "bufferView": 2,
      "byteOffset": 232128,
      "componentType": 5126,
      "count": 278,
      "max": [
        0.9559162855148315,
        0.9988924860954285,
        0.9956328272819519
      ],
      "min": [
        -0.9304329752922058,
        -0.9999847412109375,
        -0.995633065700531
      ],
      "type": "VEC3"
    },
    {
      "bufferView": 1,
      "byteOffset": 202712,
      "componentType": 5126,
      "count": 278,
      "max": [
        0.7512341141700745,
        0.7693389058113098
      ],
      "min": [
        0.049365922808647156,
        0.004550134297460318
      ],
      "type": "VEC2"
    },
    {
      "bufferView": 1,
      "byteOffset": 204936,
      "componentType": 5126,
      "count": 278,
      "max": [
        0.7512341141700745,
        0.7693389058113098
      ],
      "min": [
        0.049365922808647156,
        0.004550134297460318
      ],
      "type": "VEC2"
    },
    {
      "bufferView": 0,
      "byteOffset": 115500,
      "componentType": 5125,
      "count": 1092,
      "type": "SCALAR"
    },
    {
      "bufferView": 2,
      "byteOffset": 235464,
      "componentType": 5126,
      "count": 211,
      "max": [
        2.3640403747558594,
        0.2052764892578125,
        -0.08712807297706604
      ],
      "min": [
        1.8389703035354614,
        -0.03221803903579712,
        -1.4145383834838867
      ],
      "type": "VEC3"
    },
    {
      "bufferView": 2,
      "byteOffset": 237996,
      "componentType": 5126,
      "count": 211,
      "max": [
        0.9849640727043152,
        0.5989479422569275,
        0.9782958030700684
      ],
      "min": [
        -0.9996224045753479,
        -0.9999998807907104,
        -0.978295087814331
      ],
      "type": "VEC3"
    },
    {
      "bufferView": 1,
      "byteOffset": 207160,
      "componentType": 5126,
      "count": 211,
      "max": [
        0.9960761070251465,
        0.9274992942810059
      ],
      "min": [
        0.009444348514080048,
        0.03946386277675629
      ],
      "type": "VEC2"
    },
    {
      "bufferView": 1,
      "byteOffset": 208848,
      "componentType": 5126,
      "count": 211,
      "max": [
        0.9960761070251465,
        0.9274992942810059
      ],
      "min": [
        0.009444348514080048,
        0.03946386277675629
      ],
      "type": "VEC2"
    },
    {
      "bufferView": 1,
      "byteOffset": 210536,
      "componentType": 5126,
      "count": 211,
      "max": [
        0.9960761070251465,
        0.9274992942810059
      ],
      "min": [
        0.009444348514080048,
        0.03946386277675629
      ],
      "type": "VEC2"
    },
    {
      "bufferView": 0,
      "byteOffset": 119868,
      "componentType": 5125,
      "count": 630,
      "type": "SCALAR"
    },
    {
      "bufferView": 2,
      "byteOffset": 240528,
      "componentType": 5126,
      "count": 290,
      "max": [
        2.3640408515930176,
        0.20527642965316772,
        -0.08712814003229141
      ],
      "min": [
        1.8389700651168823,
        -0.03221791982650757,
        -1.4145381450653076
      ],
      "type": "VEC3"
    },
    {
      "bufferView": 2,
      "byteOffset": 244008,
      "componentType": 5126,
      "count": 290,
      "max": [
        0.9957389831542969,
        0.9997807145118713,
        0.89888596534729
      ],
      "min": [
        0.02094157785177231,
        -0.8114774823188782,
        -0.8988857269287109
      ],
      "type": "VEC3"
    },
    {
      "bufferView": 1,
      "byteOffset": 212224,
      "componentType": 5126,
      "count": 290,
      "max": [
        0.9795960187911987,
        0.7651979327201843
      ],
      "min": [
        0.13570722937583923,
        0.10226546972990036
      ],
      "type": "VEC2"
    },
    {
      "bufferView": 1,
      "byteOffset": 214544,
      "componentType": 5126,
      "count": 290,
      "max": [
        0.9795960187911987,
        0.7651979327201843
      ],
      "min": [
        0.13570722937583923,
        0.10226546972990036
      ],
      "type": "VEC2"
    },
    {
      "bufferView": 0,
      "byteOffset": 122388,
      "componentType": 5125,
      "count": 1050,
      "type": "SCALAR"
    },
    {
      "bufferView": 2,
      "byteOffset": 247488,
      "componentType": 5126,
      "count": 3444,
      "max": [
        1.8841558694839478,
        0.4797503352165222,
        -0.06387358158826828
      ],
      "min": [
        -0.004421710968017578,
        -0.21294331550598145,
        -1.4377933740615845
      ],
      "type": "VEC3"
    },
    {
      "bufferView": 2,
      "byteOffset": 288816,
      "componentType": 5126,
      "count": 3444,
      "max": [
        0.9999986290931702,
        0.999999463558197,
        0.9999998807907104
      ],
      "min": [
        -0.9999995827674866,
        -0.9992591142654419,
        -0.9999998807907104
      ],
      "type": "VEC3"
    },
    {
      "bufferView": 1,
      "byteOffset": 216864,
      "componentType": 5126,
      "count": 3444,
      "max": [
        0.49835389852523804,
        0.9972772002220154
      ],
      "min": [
        0.0015545986825600266,
        0.5018582344055176
      ],
      "type": "VEC2"
    },
    {
      "bufferView": 1,
      "byteOffset": 244416,
      "componentType": 5126,
      "count": 3444,
      "max": [
        0.49835389852523804,
        0.9972772002220154
      ],
      "min": [
        0.0015545986825600266,
        0.5018582344055176
      ],
      "type": "VEC2"
    },
    {
      "bufferView": 0,
      "byteOffset": 126588,
      "componentType": 5125,
      "count": 11829,
      "type": "SCALAR"
    },
    {
      "bufferView": 2,
      "byteOffset": 330144,
      "componentType": 5126,
      "count": 55,
      "max": [
        0.5447125434875488,
        0.4448937475681305,
        -0.09549446403980255
      ],
      "min": [
        0.03499948978424072,
        0.16432955861091614,
        -1.4061720371246338
      ],
      "type": "VEC3"
    },
    {
      "bufferView": 2,
      "byteOffset": 330804,
      "componentType": 5126,
      "count": 55,
      "max": [
        -0.4075995981693268,
        0.9131607413291931,
        0.17174677550792694
      ],
      "min": [
        -0.49909669160842896,
        0.864348828792572,
        -0.1717461496591568
      ],
      "type": "VEC3"
    },
    {
      "bufferView": 1,
      "byteOffset": 271968,
      "componentType": 5126,
      "count": 55,
      "max": [
        0.3178389370441437,
        0.4727666676044464
      ],
      "min": [
        0.02518121525645256,
        0.34716564416885376
      ],
      "type": "VEC2"
    },
    {
      "bufferView": 0,
      "byteOffset": 173904,
      "componentType": 5125,
      "count": 240,
      "type": "SCALAR"
    },
    {
      "bufferView": 2,
      "byteOffset": 331464,
      "componentType": 5126,
      "count": 251,
      "max": [
        3.2666635513305664,
        -0.045307084918022156,
        0.021341927349567413
      ],
      "min": [
        2.6832351684570313,
        -0.24544355273246765,
        -1.523008108139038
      ],
      "type": "VEC3"
    },
    {
      "bufferView": 2,
      "byteOffset": 334476,
      "componentType": 5126,
      "count": 251,
      "max": [
        0.9999821186065674,
        0.9975299835205078,
        0.9971120953559875
      ],
      "min": [
        -0.9969884753227234,
        -0.5928017497062683,
        -0.9971129298210144
      ],
      "type": "VEC3"
    },
    {
      "bufferView": 1,
      "byteOffset": 272408,
      "componentType": 5126,
      "count": 251,
      "max": [
        0.9801939129829407,
        0.997333288192749
      ],
      "min": [
        0.00961134023964405,
        0.05445267632603645
      ],
      "type": "VEC2"
    },
    {
      "bufferView": 1,
      "byteOffset": 274416,
      "componentType": 5126,
      "count": 251,
      "max": [
        0.9801939129829407,
        0.997333288192749
      ],
      "min": [
        0.00961134023964405,
        0.05445267632603645
      ],
      "type": "VEC2"
    },
    {
      "bufferView": 1,
      "byteOffset": 276424,
      "componentType": 5126,
      "count": 251,
      "max": [
        0.9801939129829407,
        0.997333288192749
      ],
      "min": [
        0.00961134023964405,
        0.05445267632603645
      ],
      "type": "VEC2"
    },
    {
      "bufferView": 0,
      "byteOffset": 174864,
      "componentType": 5125,
      "count": 750,
      "type": "SCALAR"
    },
    {
      "bufferView": 2,
      "byteOffset": 337488,
      "componentType": 5126,
      "count": 333,
      "max": [
        -0.5456115007400513,
        -0.0719338059425354,
        0.003908336162567139
      ],
      "min": [
        -1.0074210166931152,
        -0.29315951466560364,
        -1.5055747032165527
      ],
      "type": "VEC3"
    },
    {
      "bufferView": 2,
      "byteOffset": 341484,
      "componentType": 5126,
      "count": 333,
      "max": [
        0.9922116994857788,
        0.9987419247627258,
        0.9960750341415405
      ],
      "min": [
        -0.9966168999671936,
        -0.7536686062812805,
        -0.9960747361183167
      ],
      "type": "VEC3"
    },
    {
      "bufferView": 1,
      "byteOffset": 278432,
      "componentType": 5126,
      "count": 333,
      "max": [
        0.9954436421394348,
        0.9945548176765442
      ],
      "min": [
        0.025659797713160515,
        0.05573166906833649
      ],
      "type": "VEC2"
    },
    {
      "bufferView": 1,
      "byteOffset": 281096,
      "componentType": 5126,
      "count": 333,
      "max": [
        0.9954436421394348,
        0.9945548176765442
      ],
      "min": [
        0.025659797713160515,
        0.05573166906833649
      ],
      "type": "VEC2"
    },
    {
      "bufferView": 1,
      "byteOffset": 283760,
      "componentType": 5126,
      "count": 333,
      "max": [
        0.9954436421394348,
        0.9945548176765442
      ],
      "min": [
        0.025659797713160515,
        0.05573166906833649
      ],
      "type": "VEC2"
    },
    {
      "bufferView": 0,
      "byteOffset": 177864,
      "componentType": 5125,
      "count": 1098,
      "type": "SCALAR"
    },
    {
      "bufferView": 2,
      "byteOffset": 345480,
      "componentType": 5126,
      "count": 55,
      "max": [
        1.8841551542282104,
        0.424199640750885,
        -0.10980366170406342
      ],
      "min": [
        1.4856525659561157,
        0.19938108325004578,
        -1.3918628692626953
      ],
      "type": "VEC3"
    },
    {
      "bufferView": 2,
      "byteOffset": 346140,
      "componentType": 5126,
      "count": 55,
      "max": [
        0.5350459218025208,
        0.8643713593482971,
        0.15904594957828522
      ],
      "min": [
        0.4810366928577423,
        0.8448230624198914,
        -0.1590532660484314
      ],
      "type": "VEC3"
    },
    {
      "bufferView": 1,
      "byteOffset": 286424,
      "componentType": 5126,
      "count": 55,
      "max": [
        0.4848354458808899,
        0.47032010555267334
      ],
      "min": [
        0.356373131275177,
        0.19222232699394226
      ],
      "type": "VEC2"
    },
    {
      "bufferView": 0,
      "byteOffset": 182256,
      "componentType": 5125,
      "count": 240,
      "type": "SCALAR"
    },
    {
      "bufferView": 2,
      "byteOffset": 346800,
      "componentType": 5126,
      "count": 16,
      "max": [
        0.903938889503479,
        0.4283570349216461,
        -0.05719281733036041
      ],
      "min": [
        0.36697936058044434,
        0.17549169063568115,
        -0.19921275973320007
      ],
      "type": "VEC3"
    },
    {
      "bufferView": 2,
      "byteOffset": 346992,
      "componentType": 5126,
      "count": 16,
      "max": [
        0.0036176841240376234,
        0.5306499600410461,
        0.8801811337471008
      ],
      "min": [
        -0.0035527769941836596,
        0.474637895822525,
        0.8475890159606934
      ],
      "type": "VEC3"
    },
    {
      "bufferView": 1,
      "byteOffset": 286864,
      "componentType": 5126,
      "count": 16,
      "max": [
        0.18625883758068085,
        0.14217647910118103
      ],
      "min": [
        0.023048873990774155,
        0.029739700257778168
      ],
      "type": "VEC2"
    },
    {
      "bufferView": 0,
      "byteOffset": 183216,
      "componentType": 5125,
      "count": 54,
      "type": "SCALAR"
    },
    {
      "bufferView": 2,
      "byteOffset": 347184,
      "componentType": 5126,
      "count": 16,
      "max": [
        0.903938889503479,
        0.42835697531700134,
        -1.3024535179138184
      ],
      "min": [
        0.36697959899902344,
        0.17549154162406921,
        -1.4444739818572998
      ],
      "type": "VEC3"
    },
    {
      "bufferView": 2,
      "byteOffset": 347376,
      "componentType": 5126,
      "count": 16,
      "max": [
        0.003617525100708008,
        0.5306559205055237,
        -0.8475853204727173
      ],
      "min": [
        -0.003552851267158985,
        0.4746346175670624,
        -0.8801828622817993
      ],
      "type": "VEC3"
    },
    {
      "bufferView": 1,
      "byteOffset": 286992,
      "componentType": 5126,
      "count": 16,
      "max": [
        0.18625883758068085,
        0.14217647910118103
      ],
      "min": [
        0.023048873990774155,
        0.029739700257778168
      ],
      "type": "VEC2"
    },
    {
      "bufferView": 0,
      "byteOffset": 183432,
      "componentType": 5125,
      "count": 54,
      "type": "SCALAR"
    },
    {
      "bufferView": 2,
      "byteOffset": 347568,
      "componentType": 5126,
      "count": 178,
      "max": [
        0.45549827814102173,
        0.21459338068962097,
        -0.2855408191680908
      ],
      "min": [
        0.32271260023117065,
        0.03350692242383957,
        -0.5728514790534973
      ],
      "type": "VEC3"
    },
    {
      "bufferView": 2,
      "byteOffset": 349704,
      "componentType": 5126,
      "count": 178,
      "max": [
        0.942142903804779,
        0.9906201958656311,
        0.9763734936714172
      ],
      "min": [
        -0.9041327834129333,
        -0.8881850838661194,
        -0.9760319590568542
      ],
      "type": "VEC3"
    },
    {
      "bufferView": 1,
      "byteOffset": 287120,
      "componentType": 5126,
      "count": 178,
      "max": [
        0.43606463074684143,
        0.9986944198608398
      ],
      "min": [
        0.3940916955471039,
        0.9168785214424133
      ],
      "type": "VEC2"
    },
    {
      "bufferView": 1,
      "byteOffset": 288544,
      "componentType": 5126,
      "count": 178,
      "max": [
        0.43606463074684143,
        0.9986944198608398
      ],
      "min": [
        0.3940916955471039,
        0.9168785214424133
      ],
      "type": "VEC2"
    },
    {
      "bufferView": 0,
      "byteOffset": 183648,
      "componentType": 5125,
      "count": 708,
      "type": "SCALAR"
    },
    {
      "bufferView": 2,
      "byteOffset": 351840,
      "componentType": 5126,
      "count": 28,
      "max": [
        -0.7899938225746155,
        0.029831290245056152,
        -0.1454888880252838
      ],
      "min": [
        -0.9036914110183716,
        -0.019069045782089233,
        -1.3561779260635376
      ],
      "type": "VEC3"
    },
    {
      "bufferView": 2,
      "byteOffset": 352176,
      "componentType": 5126,
      "count": 28,
      "max": [
        -0.13881246745586395,
        0.989487886428833,
        0.9628474712371826
      ],
      "min": [
        -0.8476627469062805,
        -0.9474156498908997,
        -0.9628478288650513
      ],
      "type": "VEC3"
    },
    {
      "bufferView": 1,
      "byteOffset": 289968,
      "componentType": 5126,
      "count": 28,
      "max": [
        0.2488362044095993,
        0.747210681438446
      ],
      "min": [
        0.16769744455814362,
        0.6986701488494873
      ],
      "type": "VEC2"
    },
    {
      "bufferView": 0,
      "byteOffset": 186480,
      "componentType": 5125,
      "count": 108,
      "type": "SCALAR"
    },
    {
      "bufferView": 2,
      "byteOffset": 352512,
      "componentType": 5126,
      "count": 130,
      "max": [
        2.3628053665161133,
        0.0294400155544281,
        -0.02717258781194687
      ],
      "min": [
        -0.8359284996986389,
        -0.031778544187545776,
        -1.4744936227798462
      ],
      "type": "VEC3"
    },
    {
      "bufferView": 2,
      "byteOffset": 354072,
      "componentType": 5126,
      "count": 130,
      "max": [
        0.8781589269638062,
        0.975064754486084,
        0.9919674396514893
      ],
      "min": [
        -0.8737524151802063,
        -0.9339064955711365,
        -0.9919677972793579
      ],
      "type": "VEC3"
    },
    {
      "bufferView": 1,
      "byteOffset": 290192,
      "componentType": 5126,
      "count": 130,
      "max": [
        0.5410410165786743,
        0.29370731115341187
      ],
      "min": [
        0.508000910282135,
        0.1812991499900818
      ],
      "type": "VEC2"
    },
    {
      "bufferView": 0,
      "byteOffset": 186912,
      "componentType": 5125,
      "count": 546,
      "type": "SCALAR"
    },
    {
      "bufferView": 2,
      "byteOffset": 355632,
      "componentType": 5126,
      "count": 14,
      "max": [
        2.6346077919006348,
        0.031239092350006104,
        -0.22029109299182892
      ],
      "min": [
        2.6162939071655273,
        0.01662960648536682,
        -1.2813754081726074
      ],
      "type": "VEC3"
    },
    {
      "bufferView": 2,
      "byteOffset": 355800,
      "componentType": 5126,
      "count": 14,
      "max": [
        0.9963967800140381,
        0.91962730884552,
        0.34366387128829956
      ],
      "min": [
        0.3918539881706238,
        -0.7124425768852234,
        -0.3437110483646393
      ],
      "type": "VEC3"
    },
    {
      "bufferView": 1,
      "byteOffset": 291232,
      "componentType": 5126,
      "count": 14,
      "max": [
        0.24563360214233398,
        0.7460789680480957
      ],
      "min": [
        0.1712179183959961,
        0.7013406753540039
      ],
      "type": "VEC2"
    },
    {
      "bufferView": 0,
      "byteOffset": 189096,
      "componentType": 5125,
      "count": 36,
      "type": "SCALAR"
    },
    {
      "bufferView": 2,
      "byteOffset": 355968,
      "componentType": 5126,
      "count": 90,
      "max": [
        2.3529319763183594,
        0.055640459060668945,
        -0.06111086159944534
      ],
      "min": [
        2.1939024925231934,
        0.00031834840774536133,
        -1.4405555725097656
      ],
      "type": "VEC3"
    },
    {
      "bufferView": 2,
      "byteOffset": 357048,
      "componentType": 5126,
      "count": 90,
      "max": [
        0.9565929770469666,
        0.9975067973136902,
        0.8958149552345276
      ],
      "min": [
        0.05402093753218651,
        -0.8231953382492065,
        -0.8958158493041992
      ],
      "type": "VEC3"
    },
    {
      "bufferView": 1,
      "byteOffset": 291344,
      "componentType": 5126,
      "count": 90,
      "max": [
        0.6526901721954346,
        0.6261617541313171
      ],
      "min": [
        0.524457573890686,
        0.5223928093910217
      ],
      "type": "VEC2"
    },
    {
      "bufferView": 0,
      "byteOffset": 189240,
      "componentType": 5125,
      "count": 336,
      "type": "SCALAR"
    },
    {
      "bufferView": 2,
      "byteOffset": 358128,
      "componentType": 5126,
      "count": 771,
      "max": [
        0.7741004824638367,
        0.9467711448669434,
        0.9466896653175354
      ],
      "min": [
        -0.0037069995887577534,
        -0.9466077089309692,
        -0.9466893672943115
      ],
      "type": "VEC3"
    },
    {
      "bufferView": 2,
      "byteOffset": 367380,
      "componentType": 5126,
      "count": 771,
      "max": [
        1.0,
        0.999741792678833,
        0.9959459900856018
      ],
      "min": [
        -0.9993913769721985,
        -0.998731255531311,
        -0.999765932559967
      ],
      "type": "VEC3"
    },
    {
      "bufferView": 1,
      "byteOffset": 292064,
      "componentType": 5126,
      "count": 771,
      "max": [
        0.988741934299469,
        0.9913949966430664
      ],
      "min": [
        0.015149518847465515,
        0.007186064030975103
      ],
      "type": "VEC2"
    },
    {
      "bufferView": 1,
      "byteOffset": 298232,
      "componentType": 5126,
      "count": 771,
      "max": [
        0.988741934299469,
        0.9913949966430664
      ],
      "min": [
        0.015149518847465515,
        0.007186064030975103
      ],
      "type": "VEC2"
    },
    {
      "bufferView": 0,
      "byteOffset": 190584,
      "componentType": 5125,
      "count": 2433,
      "type": "SCALAR"
    },
    {
      "bufferView": 2,
      "byteOffset": 376632,
      "componentType": 5126,
      "count": 771,
      "max": [
        0.7741004824638367,
        0.9467711448669434,
        0.9466896653175354
      ],
      "min": [
        -0.0037069995887577534,
        -0.9466077089309692,
        -0.9466893672943115
      ],
      "type": "VEC3"
    },
    {
      "bufferView": 2,
      "byteOffset": 385884,
      "componentType": 5126,
      "count": 771,
      "max": [
        1.0,
        0.999741792678833,
        0.9959459900856018
      ],
      "min": [
        -0.9993913769721985,
        -0.998731255531311,
        -0.999765932559967
      ],
      "type": "VEC3"
    },
    {
      "bufferView": 1,
      "byteOffset": 304400,
      "componentType": 5126,
      "count": 771,
      "max": [
        0.988741934299469,
        0.9913949966430664
      ],
      "min": [
        0.015149518847465515,
        0.007186064030975103
      ],
      "type": "VEC2"
    },
    {
      "bufferView": 1,
      "byteOffset": 310568,
      "componentType": 5126,
      "count": 771,
      "max": [
        0.988741934299469,
        0.9913949966430664
      ],
      "min": [
        0.015149518847465515,
        0.007186064030975103
      ],
      "type": "VEC2"
    },
    {
      "bufferView": 0,
      "byteOffset": 200316,
      "componentType": 5125,
      "count": 2433,
      "type": "SCALAR"
    },
    {
      "bufferView": 2,
      "byteOffset": 395136,
      "componentType": 5126,
      "count": 771,
      "max": [
        0.7741004824638367,
        0.9467711448669434,
        0.9466896653175354
      ],
      "min": [
        -0.0037069995887577534,
        -0.9466077089309692,
        -0.9466893672943115
      ],
      "type": "VEC3"
    },
    {
      "bufferView": 2,
      "byteOffset": 404388,
      "componentType": 5126,
      "count": 771,
      "max": [
        1.0,
        0.999741792678833,
        0.9959459900856018
      ],
      "min": [
        -0.9993913769721985,
        -0.998731255531311,
        -0.999765932559967
      ],
      "type": "VEC3"
    },
    {
      "bufferView": 1,
      "byteOffset": 316736,
      "componentType": 5126,
      "count": 771,
      "max": [
        0.988741934299469,
        0.9913949966430664
      ],
      "min": [
        0.015149518847465515,
        0.007186064030975103
      ],
      "type": "VEC2"
    },
    {
      "bufferView": 1,
      "byteOffset": 322904,
      "componentType": 5126,
      "count": 771,
      "max": [
        0.988741934299469,
        0.9913949966430664
      ],
      "min": [
        0.015149518847465515,
        0.007186064030975103
      ],
      "type": "VEC2"
    },
    {
      "bufferView": 0,
      "byteOffset": 210048,
      "componentType": 5125,
      "count": 2433,
      "type": "SCALAR"
    },
    {
      "bufferView": 2,
      "byteOffset": 413640,
      "componentType": 5126,
      "count": 771,
      "max": [
        0.7741004824638367,
        0.9467711448669434,
        0.9466896653175354
      ],
      "min": [
        -0.0037069995887577534,
        -0.9466077089309692,
        -0.9466893672943115
      ],
      "type": "VEC3"
    },
    {
      "bufferView": 2,
      "byteOffset": 422892,
      "componentType": 5126,
      "count": 771,
      "max": [
        1.0,
        0.999741792678833,
        0.9959459900856018
      ],
      "min": [
        -0.9993913769721985,
        -0.998731255531311,
        -0.999765932559967
      ],
      "type": "VEC3"
    },
    {
      "bufferView": 1,
      "byteOffset": 329072,
      "componentType": 5126,
      "count": 771,
      "max": [
        0.988741934299469,
        0.9913949966430664
      ],
      "min": [
        0.015149518847465515,
        0.007186064030975103
      ],
      "type": "VEC2"
    },
    {
      "bufferView": 1,
      "byteOffset": 335240,
      "componentType": 5126,
      "count": 771,
      "max": [
        0.988741934299469,
        0.9913949966430664
      ],
      "min": [
        0.015149518847465515,
        0.007186064030975103
      ],
      "type": "VEC2"
    },
    {
      "bufferView": 0,
      "byteOffset": 219780,
      "componentType": 5125,
      "count": 2433,
      "type": "SCALAR"
    },
    {
      "bufferView": 2,
      "byteOffset": 432144,
      "componentType": 5126,
      "count": 96,
      "max": [
        -0.3421662151813507,
        0.5598644614219666,
        0.004290614277124405
      ],
      "min": [
        -0.642166256904602,
        0.4098644554615021,
        0.0
      ],
      "type": "VEC3"
    },
    {
      "bufferView": 2,
      "byteOffset": 433296,
      "componentType": 5126,
      "count": 96,
      "max": [
        0.8277473449707031,
        0.8206135630607605,
        1.0
      ],
      "min": [
        -0.8277504444122314,
        -0.820611298084259,
        -1.0
      ],
      "type": "VEC3"
    },
    {
      "bufferView": 1,
      "byteOffset": 341408,
      "componentType": 5126,
      "count": 96,
      "max": [
        0.9670416712760925,
        1.0
      ],
      "min": [
        0.0,
        0.13188180327415466
      ],
      "type": "VEC2"
    },
    {
      "bufferView": 1,
      "byteOffset": 342176,
      "componentType": 5126,
      "count": 96,
      "max": [
        0.9670416712760925,
        1.0
      ],
      "min": [
        0.0,
        0.13188180327415466
      ],
      "type": "VEC2"
    },
    {
      "bufferView": 1,
      "byteOffset": 342944,
      "componentType": 5126,
      "count": 96,
      "max": [
        0.9670416712760925,
        1.0
      ],
      "min": [
        0.0,
        0.13188180327415466
      ],
      "type": "VEC2"
    },
    {
      "bufferView": 0,
      "byteOffset": 229512,
      "componentType": 5125,
      "count": 240,
      "type": "SCALAR"
    },
    {
      "bufferView": 2,
      "byteOffset": 434448,
      "componentType": 5126,
      "count": 96,
      "max": [
        -0.3421662151813507,
        0.5598644614219666,
        0.004290614277124405
      ],
      "min": [
        -0.642166256904602,
        0.4098644554615021,
        0.0
      ],
      "type": "VEC3"
    },
    {
      "bufferView": 2,
      "byteOffset": 435600,
      "componentType": 5126,
      "count": 96,
      "max": [
        0.8277473449707031,
        0.8206135630607605,
        1.0
      ],
      "min": [
        -0.8277504444122314,
        -0.820611298084259,
        -1.0
      ],
      "type": "VEC3"
    },
    {
      "bufferView": 1,
      "byteOffset": 343712,
      "componentType": 5126,
      "count": 96,
      "max": [
        0.9670416712760925,
        1.0
      ],
      "min": [
        0.0,
        0.13188180327415466
      ],
      "type": "VEC2"
    },
    {
      "bufferView": 1,
      "byteOffset": 344480,
      "componentType": 5126,
      "count": 96,
      "max": [
        0.9670416712760925,
        1.0
      ],
      "min": [
        0.0,
        0.13188180327415466
      ],
      "type": "VEC2"
    },
    {
      "bufferView": 1,
      "byteOffset": 345248,
      "componentType": 5126,
      "count": 96,
      "max": [
        0.9670416712760925,
        1.0
      ],
      "min": [
        0.0,
        0.13188180327415466
      ],
      "type": "VEC2"
    },
    {
      "bufferView": 0,
      "byteOffset": 230472,
      "componentType": 5125,
      "count": 240,
      "type": "SCALAR"
    },
    {
      "bufferView": 2,
      "byteOffset": 436752,
      "componentType": 5126,
      "count": 45,
      "max": [
        0.8750758171081543,
        -4.328658103942871,
        -0.537457287311554
      ],
      "min": [
        -1.9203873872756958,
        -4.466694355010986,
        -0.6178765892982483
      ],
      "type": "VEC3"
    },
    {
      "bufferView": 2,
      "byteOffset": 437292,
      "componentType": 5126,
      "count": 45,
      "max": [
        0.09230298548936844,
        0.6474217176437378,
        0.8932316899299622
      ],
      "min": [
        -0.09081730246543884,
        0.440839022397995,
        0.7621212005615234
      ],
      "type": "VEC3"
    },
    {
      "bufferView": 1,
      "byteOffset": 346016,
      "componentType": 5126,
      "count": 45,
      "max": [
        0.6924179196357727,
        0.748093843460083
      ],
      "min": [
        0.23063045740127563,
        0.006369512528181076
      ],
      "type": "VEC2"
    },
    {
      "bufferView": 1,
      "byteOffset": 346376,
      "componentType": 5126,
      "count": 45,
      "max": [
        0.6924179196357727,
        0.748093843460083
      ],
      "min": [
        0.23063045740127563,
        0.006369512528181076
      ],
      "type": "VEC2"
    },
    {
      "bufferView": 0,
      "byteOffset": 231432,
      "componentType": 5125,
      "count": 78,
      "type": "SCALAR"
    },
    {
      "bufferView": 2,
      "byteOffset": 437832,
      "componentType": 5126,
      "count": 32,
      "max": [
        0.8907463550567627,
        -4.411771297454834,
        -0.024554230272769928
      ],
      "min": [
        0.5379244089126587,
        -4.466696739196777,
        -0.061840154230594635
      ],
      "type": "VEC3"
    },
    {
      "bufferView": 2,
      "byteOffset": 438216,
      "componentType": 5126,
      "count": 32,
      "max": [
        0.017710959538817406,
        -0.49565598368644714,
        0.8683383464813232
      ],
      "min": [
        0.007085994817316532,
        -0.5166534781455994,
        0.8561652898788452
      ],
      "type": "VEC3"
    },
    {
      "bufferView": 1,
      "byteOffset": 346736,
      "componentType": 5126,
      "count": 32,
      "max": [
        0.6924179196357727,
        0.03451794758439064
      ],
      "min": [
        0.23063045740127563,
        0.006369512528181076
      ],
      "type": "VEC2"
    },
    {
      "bufferView": 1,
      "byteOffset": 346992,
      "componentType": 5126,
      "count": 32,
      "max": [
        0.6924179196357727,
        0.03451794758439064
      ],
      "min": [
        0.23063045740127563,
        0.006369512528181076
      ],
      "type": "VEC2"
    },
    {
      "bufferView": 0,
      "byteOffset": 231744,
      "componentType": 5125,
      "count": 48,
      "type": "SCALAR"
    }
  ],
  "asset": {
    "extras": {
      "author": "Daniel Zhabotinsky (https://sketchfab.com/DanielZhabotinsky)",
      "license": "CC-BY-4.0 (http://creativecommons.org/licenses/by/4.0/)",
      "source": "https://sketchfab.com/3d-models/illinois-90-low-poly-model-d604871eee5b4181bb298163b0b675b7",
      "title": "Illinois '90 - Low poly model"
    },
    "generator": "Sketchfab-16.74.0",
    "version": "2.0"
  },
  "bufferViews": [
    {
      "buffer": 0,
      "byteLength": 231936,
      "name": "floatBufferViews",
      "target": 34963
    },
    {
      "buffer": 0,
      "byteLength": 347248,
      "byteOffset": 231936,
      "byteStride": 8,
      "name": "floatBufferViews",
      "target": 34962
    },
    {
      "buffer": 0,
      "byteLength": 438600,
      "byteOffset": 579184,
      "byteStride": 12,
      "name": "floatBufferViews",
      "target": 34962
    }
  ],
  "buffers": [
    {
      "byteLength": 1017784,
      "uri": "scene.bin"
    }
  ],
  "extensionsUsed": [
    "KHR_materials_specular",
    "KHR_texture_transform",
    "KHR_materials_clearcoat"
  ],
  "images": [
    {
      "uri": "textures/UCB_BOTTOM_baseColor.jpeg"
    },
    {
      "uri": "textures/UCB_BOTTOM_metallicRoughness.png"
    },
    {
      "uri": "textures/UCB_BOTTOM_specularf0.png"
    },
    {
      "uri": "textures/Illinois90_Bodymat_metallicRoughness.png"
    },
    {
      "uri": "textures/Illinois90_Bodymat_specularf0.png"
    },
    {
      "uri": "textures/UCB_Lights_and_Glass_Transperent_baseColor.jpeg"
    },
    {
      "uri": "textures/UCB_Interiors_2_baseColor.jpeg"
    },
    {
      "uri": "textures/UCB_Interiors_2_metallicRoughness.png"
    },
    {
      "uri": "textures/RB1c_Tire_1k_baseColor.jpeg"
    },
    {
      "uri": "textures/RB1c_Tire_1k_metallicRoughness.png"
    },
    {
      "uri": "textures/RB1c_Tire_1k_specularf0.png"
    },
    {
      "uri": "textures/Numberplates_Misk_U_baseColor.png"
    },
    {
      "uri": "textures/Carbadges_misc_U_baseColor.png"
    }
  ],
  "materials": [
    {
      "doubleSided": true,
      "extensions": {
        "KHR_materials_specular": {
          "specularColorFactor": [
            1.0,
            1.0,
            1.0
          ],
          "specularFactor": 1.0,
          "specularTexture": {
            "index": 2
          }
        }
      },
      "name": "UCB_BOTTOM",
      "occlusionTexture": {
        "index": 1
      },
      "pbrMetallicRoughness": {
        "baseColorTexture": {
          "index": 0
        },
        "metallicRoughnessTexture": {
          "index": 1
        }
      }
    },
    {
      "doubleSided": true,
      "extensions": {
        "KHR_materials_clearcoat": {
          "clearcoatFactor": 0.5037561379802517,
          "clearcoatRoughnessFactor": 0.04
        },
        "KHR_materials_specular": {
          "specularColorFactor": [
            1.0,
            1.0,
            1.0
          ],
          "specularFactor": 1.0,
          "specularTexture": {
            "index": 4
          }
        }
      },
      "name": "Illinois90_Bodymat",
      "occlusionTexture": {
        "index": 3
      },
      "pbrMetallicRoughness": {
        "baseColorFactor": [
          0.005842273323735821,
          0.005842273323735821,
          0.005842273323735821,
          1.0
        ],
        "metallicRoughnessTexture": {
          "extensions": {
            "KHR_texture_transform": {
              "scale": [
                20.000000000000004,
                20.000000000000004
              ]
            }
          },
          "index": 3
        },
        "roughnessFactor": 0.17690762518707168
      }
    },
    {
      "alphaMode": "BLEND",
      "doubleSided": true,
      "name": "UCB_Lights_and_Glass_Transperent",
      "pbrMetallicRoughness": {
        "baseColorFactor": [
          1.0,
          1.0,
          1.0,
          0.8
        ],
        "baseColorTexture": {
          "index": 5
        },
        "metallicFactor": 0.0,
        "roughnessFactor": 0.0361343893178321
      }
    },
    {
      "doubleSided": true,
      "name": "UCB_Interiors_2",
      "pbrMetallicRoughness": {
        "baseColorTexture": {
          "index": 6
        },
        "metallicRoughnessTexture": {
          "index": 7
        }
      }
    },
    {
      "doubleSided": true,
      "name": "UCB_Lights_and_Glass",
      "pbrMetallicRoughness": {
        "baseColorTexture": {
          "index": 5
        },
        "metallicFactor": 0.0,
        "roughnessFactor": 0.04220739904072067
      }
    },
    {
      "doubleSided": true,
      "extensions": {
        "KHR_materials_specular": {
          "specularColorFactor": [
            1.0,
            1.0,
            1.0
          ],
          "specularFactor": 1.0,
          "specularTexture": {
            "index": 10
          }
        }
      },
      "name": "RB1c_Tire_1k",
      "occlusionTexture": {
        "index": 9
      },
      "pbrMetallicRoughness": {
        "baseColorTexture": {
          "index": 8
        },
        "metallicFactor": 0.9,
        "metallicRoughnessTexture": {
          "index": 9
        }
      }
    },
    {
      "alphaMode": "BLEND",
      "doubleSided": true,
      "name": "Numberplates_Misk_U",
      "pbrMetallicRoughness": {
        "baseColorTexture": {
          "index": 11
        },
        "metallicFactor": 0.0,
        "roughnessFactor": 0.10702864035024488
      }
    },
    {
      "alphaMode": "BLEND",
      "doubleSided": true,
      "name": "Carbadges_misc_U",
      "pbrMetallicRoughness": {
        "baseColorTexture": {
          "index": 12
        },
        "metallicFactor": 0.7406035171729057,
        "roughnessFactor": 0.10702864035024488
      }
    }
  ],
  "meshes": [
    {
      "name": "Illinois90_SUSPENSION_UCB_BOTTOM_0",
      "primitives": [
        {
          "attributes": {
            "NORMAL": 1,
            "POSITION": 0,
            "TEXCOORD_0": 2,
            "TEXCOORD_1": 3,
            "TEXCOORD_2": 4
          },
          "indices": 5,
          "material": 0,
          "mode": 4
        }
      ]
    },
    {
      "name": "Illinois90_Body_Illinois90_Bodymat_0",
      "primitives": [
        {
          "attributes": {
            "NORMAL": 7,
            "POSITION": 6,
            "TEXCOORD_0": 8,
            "TEXCOORD_1": 9
          },
          "indices": 10,
          "material": 1,
          "mode": 4
        }
      ]
    },
    {
      "name": "Illinois90_Bottom_UCB_BOTTOM_0",
      "primitives": [
        {
          "attributes": {
            "NORMAL": 12,
            "POSITION": 11,
            "TEXCOORD_0": 13,
            "TEXCOORD_1": 14,
            "TEXCOORD_2": 15
          },
          "indices": 16,
          "material": 0,
          "mode": 4
        }
      ]
    },
    {
      "name": "Illinois90_Headlights_Glass_UCB_Lights_and_Glass_Transperent_0",
      "primitives": [
        {
          "attributes": {
            "NORMAL": 18,
            "POSITION": 17,
            "TEXCOORD_0": 19
          },
          "indices": 20,
          "material": 2,
          "mode": 4
        }
      ]
    },
    {
      "name": "Illinois90_Bumper_front_Illinois90_Bodymat_0",
      "primitives": [
        {
          "attributes": {
            "NORMAL": 22,
            "POSITION": 21,
            "TEXCOORD_0": 23,
            "TEXCOORD_1": 24
          },
          "indices": 25,
          "material": 1,
          "mode": 4
        }
      ]
    },
    {
      "name": "Illinois90_Body_Glass_UCB_Lights_and_Glass_Transperent_0",
      "primitives": [
        {
          "attributes": {
            "NORMAL": 27,
            "POSITION": 26,
            "TEXCOORD_0": 28
          },
          "indices": 29,
          "material": 2,
          "mode": 4
        }
      ]
    },
    {
      "name": "Illinois90_Bumper_rear_Illinois90_Bodymat_0",
      "primitives": [
        {
          "attributes": {
            "NORMAL": 31,
            "POSITION": 30,
            "TEXCOORD_0": 32,
            "TEXCOORD_1": 33
          },
          "indices": 34,
          "material": 1,
          "mode": 4
        }
      ]
    },
    {
      "name": "Illinois90_Taillights_glass_UCB_Lights_and_Glass_Transperent_0",
      "primitives": [
        {
          "attributes": {
            "NORMAL": 36,
            "POSITION": 35,
            "TEXCOORD_0": 37
          },
          "indices": 38,
          "material": 2,
          "mode": 4
        }
      ]
    },
    {
      "name": "Illinois90_Reverse_UCB_Lights_and_Glass_Transperent_0",
      "primitives": [
        {
          "attributes": {
            "NORMAL": 40,
            "POSITION": 39,
            "TEXCOORD_0": 41
          },
          "indices": 42,
          "material": 2,
          "mode": 4
        }
      ]
    },
    {
      "name": "Illinois90_Hood_Illinois90_Bodymat_0",
      "primitives": [
        {
          "attributes": {
            "NORMAL": 44,
            "POSITION": 43,
            "TEXCOORD_0": 45,
            "TEXCOORD_1": 46
          },
          "indices": 47,
          "material": 1,
          "mode": 4
        }
      ]
    },
    {
      "name": "Illinois90_Trunkdoor_inner_UCB_BOTTOM_0",
      "primitives": [
        {
          "attributes": {
            "NORMAL": 49,
            "POSITION": 48,
            "TEXCOORD_0": 50,
            "TEXCOORD_1": 51,
            "TEXCOORD_2": 52
          },
          "indices": 53,
          "material": 0,
          "mode": 4
        }
      ]
    },
    {
      "name": "Illinois90_Trunkdoor_Illinois90_Bodymat_0",
      "primitives": [
        {
          "attributes": {
            "NORMAL": 55,
            "POSITION": 54,
            "TEXCOORD_0": 56,
            "TEXCOORD_1": 57
          },
          "indices": 58,
          "material": 1,
          "mode": 4
        }
      ]
    },
    {
      "name": "Illinois90_Interior_UCB_Interiors_2_0",
      "primitives": [
        {
          "attributes": {
            "NORMAL": 60,
            "POSITION": 59,
            "TEXCOORD_0": 61,
            "TEXCOORD_1": 62
          },
          "indices": 63,
          "material": 3,
          "mode": 4
        }
      ]
    },
    {
      "name": "Illinois90_Windshield_UCB_Lights_and_Glass_Transperent_0",
      "primitives": [
        {
          "attributes": {
            "NORMAL": 65,
            "POSITION": 64,
            "TEXCOORD_0": 66
          },
          "indices": 67,
          "material": 2,
          "mode": 4
        }
      ]
    },
    {
      "name": "Illinois90_Bumper_rear_inner_UCB_BOTTOM_0",
      "primitives": [
        {
          "attributes": {
            "NORMAL": 69,
            "POSITION": 68,
            "TEXCOORD_0": 70,
            "TEXCOORD_1": 71,
            "TEXCOORD_2": 72
          },
          "indices": 73,
          "material": 0,
          "mode": 4
        }
      ]
    },
    {
      "name": "Illinois90_Bumper_front_inner_UCB_BOTTOM_0",
      "primitives": [
        {
          "attributes": {
            "NORMAL": 75,
            "POSITION": 74,
            "TEXCOORD_0": 76,
            "TEXCOORD_1": 77,
            "TEXCOORD_2": 78
          },
          "indices": 79,
          "material": 0,
          "mode": 4
        }
      ]
    },
    {
      "name": "Illinois90_Rear_Glass_UCB_Lights_and_Glass_Transperent_0",
      "primitives": [
        {
          "attributes": {
            "NORMAL": 81,
            "POSITION": 80,
            "TEXCOORD_0": 82
          },
          "indices": 83,
          "material": 2,
          "mode": 4
        }
      ]
    },
    {
      "name": "Illinois90_glass_Driver_UCB_Lights_and_Glass_Transperent_0",
      "primitives": [
        {
          "attributes": {
            "NORMAL": 85,
            "POSITION": 84,
            "TEXCOORD_0": 86
          },
          "indices": 87,
          "material": 2,
          "mode": 4
        }
      ]
    },
    {
      "name": "Illinois90_Glass_Passenger_UCB_Lights_and_Glass_Transperent_0",
      "primitives": [
        {
          "attributes": {
            "NORMAL": 89,
            "POSITION": 88,
            "TEXCOORD_0": 90
          },
          "indices": 91,
          "material": 2,
          "mode": 4
        }
      ]
    },
    {
      "name": "Illinois90_Steering_Wheel_UCB_Interiors_2_0",
      "primitives": [
        {
          "attributes": {
            "NORMAL": 93,
            "POSITION": 92,
            "TEXCOORD_0": 94,
            "TEXCOORD_1": 95
          },
          "indices": 96,
          "material": 3,
          "mode": 4
        }
      ]
    },
    {
      "name": "Illinois90_Headlights_UCB_Lights_and_Glass_0",
      "primitives": [
        {
          "attributes": {
            "NORMAL": 98,
            "POSITION": 97,
            "TEXCOORD_0": 99
          },
          "indices": 100,
          "material": 4,
          "mode": 4
        }
      ]
    },
    {
      "name": "Illinois90_Blinkers_UCB_Lights_and_Glass_0",
      "primitives": [
        {
          "attributes": {
            "NORMAL": 102,
            "POSITION": 101,
            "TEXCOORD_0": 103
          },
          "indices": 104,
          "material": 4,
          "mode": 4
        }
      ]
    },
    {
      "name": "Illinois90_Reverse_UCB_Lights_and_Glass_0",
      "primitives": [
        {
          "attributes": {
            "NORMAL": 106,
            "POSITION": 105,
            "TEXCOORD_0": 107
          },
          "indices": 108,
          "material": 4,
          "mode": 4
        }
      ]
    },
    {
      "name": "Illinois90_Brakelights_UCB_Lights_and_Glass_0",
      "primitives": [
        {
          "attributes": {
            "NORMAL": 110,
            "POSITION": 109,
            "TEXCOORD_0": 111
          },
          "indices": 112,
          "material": 4,
          "mode": 4
        }
      ]
    },
    {
      "name": "Illinois90_WheelStock_FL_RB1c_Tire_1k_0",
      "primitives": [
        {
          "attributes": {
            "NORMAL": 114,
            "POSITION": 113,
            "TEXCOORD_0": 115,
            "TEXCOORD_1": 116
          },
          "indices": 117,
          "material": 5,
          "mode": 4
        }
      ]
    },
    {
      "name": "Illinois90_WheelStock_RL_RB1c_Tire_1k_0",
      "primitives": [
        {
          "attributes": {
            "NORMAL": 119,
            "POSITION": 118,
            "TEXCOORD_0": 120,
            "TEXCOORD_1": 121
          },
          "indices": 122,
          "material": 5,
          "mode": 4
        }
      ]
    },
    {
      "name": "Illinois90_WheelStock_RR_RB1c_Tire_1k_0",
      "primitives": [
        {
          "attributes": {
            "NORMAL": 124,
            "POSITION": 123,
            "TEXCOORD_0": 125,
            "TEXCOORD_1": 126
          },
          "indices": 127,
          "material": 5,
          "mode": 4
        }
      ]
    },
    {
      "name": "Illinois90_WheelStock_FR_RB1c_Tire_1k_0",
      "primitives": [
        {
          "attributes": {
            "NORMAL": 129,
            "POSITION": 128,
            "TEXCOORD_0": 130,
            "TEXCOORD_1": 131
          },
          "indices": 132,
          "material": 5,
          "mode": 4
        }
      ]
    },
    {
      "name": "Illinois90_Trunkdoor_Numberplates_Numberplates_Misk_U_0",
      "primitives": [
        {
          "attributes": {
            "NORMAL": 134,
            "POSITION": 133,
            "TEXCOORD_0": 135,
            "TEXCOORD_1": 136,
            "TEXCOORD_2": 137
          },
          "indices": 138,
          "material": 6,
          "mode": 4
        }
      ]
    },
    {
      "name": "Illinois90_Numberplate_front_Numberplates_Misk_U_0",
      "primitives": [
        {
          "attributes": {
            "NORMAL": 140,
            "POSITION": 139,
            "TEXCOORD_0": 141,
            "TEXCOORD_1": 142,
            "TEXCOORD_2": 143
          },
          "indices": 144,
          "material": 6,
          "mode": 4
        }
      ]
    },
    {
      "name": "Illinois90_Trunkdoor_Badges_Carbadges_misc_U_0",
      "primitives": [
        {
          "attributes": {
            "NORMAL": 146,
            "POSITION": 145,
            "TEXCOORD_0": 147,
            "TEXCOORD_1": 148
          },
          "indices": 149,
          "material": 7,
          "mode": 4
        }
      ]
    },
    {
      "name": "Illinois90_Body_Badges_Carbadges_misc_U_0",
      "primitives": [
        {
          "attributes": {
            "NORMAL": 151,
            "POSITION": 150,
            "TEXCOORD_0": 152,
            "TEXCOORD_1": 153
          },
          "indices": 154,
          "material": 7,
          "mode": 4
        }
      ]
    }
  ],
  "nodes": [
    {
      "children": [
        1
      ],
      "matrix": [
        1.0,
        0.0,
        0.0,
        0.0,
        0.0,
        2.220446049250313e-16,
        -1.0,
        0.0,
        0.0,
        1.0,
        2.220446049250313e-16,
        0.0,
        0.0,
        0.0,
        0.0,
        1.0
      ],
      "name": "Sketchfab_model"
    },
    {
      "children": [
        2
      ],
      "matrix": [
        1.0,
        0.0,
        0.0,
        0.0,
        0.0,
        0.0,
        1.0,
        0.0,
        0.0,
        -1.0,
        0.0,
        0.0,
        0.0,
        0.0,
        0.0,
        1.0
      ],
      "name": "fbdba9731e5b40c59a403cc0ea2c502f.fbx"
    },
    {
      "children": [
        3,
        6,
        9,
        12,
        15,
        18,
        21,
        24,
        27,
        30,
        33,
        36,
        39,
        42,
        45,
        48,
        51,
        54,
        57,
        60,
        63,
        66,
        69,
        72,
        75,
        78,
        81,
        84,
        87,
        90,
        93,
        96
      ],
      "name": "RootNode"
    },
    {
      "children": [
        4
      ],
      "matrix": [
        0.9998552331013993,
        -0.017015076708937628,
        2.0821252643965504e-06,
        0.0,
        2.1900712063802335e-06,
        1.0936013296841794e-05,
        -0.9623230099031723,
        0.0,
        0.017015092910974836,
        0.9998561865752414,
        1.1401270367036678e-05,
        0.0,
        -0.03155851364135742,
        0.3528047502040863,
        -2.7958226382907014e-06,
        1.0
      ],
      "name": "Illinois90_SUSPENSION"
    },
    {
      "children": [
        5
      ],
      "matrix": [
        -1.0,
        1.2246467991473532e-16,
        0.0,
        0.0,
        -1.2246467991473532e-16,
        -1.0,
        0.0,
        0.0,
        0.0,
        0.0,
        1.0,
        0.0,
        -1.295151710510254,
        -6.258486791921314e-06,
        -0.0646601989865303,
        1.0
      ],
      "name": "Object_4"
    },
    {
      "mesh": 0,
      "name": "Illinois90_SUSPENSION_UCB_BOTTOM_0"
    },
    {
      "children": [
        7
      ],
      "matrix": [
        -1.5031000375747408,
        -1.753564184185349e-07,
        2.2696179930771564e-07,
        0.0,
        -1.8227154484274526e-07,
        1.5623739957809135,
        -2.5454301327384064e-07,
        0.0,
        -1.8258365744265176e-07,
        -1.970032101323911e-07,
        -1.2091970443725288,
        0.0,
        -0.019753575325012207,
        0.8328489065170288,
        1.209361926157726e-07,
        1.0
      ],
      "name": "Illinois90_Body"
    },
    {
      "children": [
        8
      ],
      "matrix": [
        1.0,
        0.0,
        -0.0,
        0.0,
        0.0,
        1.0,
        0.0,
        0.0,
        0.0,
        0.0,
        1.0,
        0.0,
        -0.727006196975708,
        -0.11472529917955399,
        0.7508332133293152,
        1.0
      ],
      "name": "Object_7"
    },
    {
      "mesh": 1,
      "name": "Illinois90_Body_Illinois90_Bodymat_0"
    },
    {
      "children": [
        10
      ],
      "matrix": [
        -1.5031000375747374,
        -2.0458252494860746e-07,
        2.2696179930771516e-07,
        0.0,
        -2.1265016748863588e-07,
        1.5623739957809095,
        -2.545430084170066e-07,
        0.0,
        -1.825836536121438e-07,
        -1.9700320992358747e-07,
        -1.209197044372529,
        0.0,
        0.008198261260986328,
        0.7804666757583618,
        -7.167147431097476e-10,
        1.0
      ],
      "name": "Illinois90_Bottom"
    },
    {
      "children": [
        11
      ],
      "matrix": [
        1.0,
        0.0,
        -0.0,
        0.0,
        0.0,
        1.0,
        0.0,
        0.0,
        0.0,
        0.0,
        1.0,
        0.0,
        -0.7084100246429443,
        -0.0811980664730072,
        0.7508330345153809,
        1.0
      ],
      "name": "Object_10"
    },
    {
      "mesh": 2,
      "name": "Illinois90_Bottom_UCB_BOTTOM_0"
    },
    {
      "children": [
        13
      ],
      "matrix": [
        -1.5031000375747374,
        -2.0458252494860746e-07,
        2.2696179930771516e-07,
        0.0,
        -2.1265016748863588e-07,
        1.5623739957809095,
        -2.545430084170066e-07,
        0.0,
        -1.825836536121438e-07,
        -1.9700320992358747e-07,
        -1.209197044372529,
        0.0,
        2.21406888961792,
        0.6599225997924805,
        -1.3395541031968605e-07,
        1.0
      ],
      "name": "Illinois90_Headlights_Glass"
    },
    {
      "children": [
        14
      ],
      "matrix": [
        1.0,
        0.0,
        -0.0,
        0.0,
        0.0,
        1.0,
        0.0,
        0.0,
        0.0,
        0.0,
        1.0,
        0.0,
        0.8555402159690857,
        0.033961545675992966,
        0.7508328557014465,
        1.0
      ],
      "name": "Object_13"
    },
    {
      "mesh": 3,
      "name": "Illinois90_Headlights_Glass_UCB_Lights_and_Glass_Transperent_0"
    },
    {
      "children": [
        16
      ],
      "matrix": [
        -1.5031000375747374,
        -2.0458252494860746e-07,
        2.2696179930771516e-07,
        0.0,
        -2.1265016748863588e-07,
        1.5623739957809095,
        -2.545430084170066e-07,
        0.0,
        -1.825836536121438e-07,
        -1.9700320992358747e-07,
        -1.209197044372529,
        0.0,
        2.235074043273926,
        0.42777684330940247,
        -7.618709219059383e-08,
        1.0
      ],
      "name": "Illinois90_Bumper_front"
    },
    {
      "children": [
        17
      ],
      "matrix": [
        1.0,
        0.0,
        -0.0,
        0.0,
        0.0,
        1.0,
        0.0,
        0.0,
        0.0,
        0.0,
        1.0,
        0.0,
        0.7731122970581055,
        0.1825467348098755,
        0.7508331537246704,
        1.0
      ],
      "name": "Object_16"
    },
    {
      "mesh": 4,
      "name": "Illinois90_Bumper_front_Illinois90_Bodymat_0"
    },
    {
      "children": [
        19
      ],
      "matrix": [
        -1.5031000375747374,
        -2.0458252494860746e-07,
        2.2696179930771516e-07,
        0.0,
        -2.1265016748863588e-07,
        1.5623739957809095,
        -2.545430084170066e-07,
        0.0,
        -1.825836536121438e-07,
        -1.9700320992358747e-07,
        -1.209197044372529,
        0.0,
        -0.8910975456237793,
        1.1278585195541382,
        1.8297576787063008e-08,
        1.0
      ],
      "name": "Illinois90_Body_Glass"
    },
    {
      "children": [
        20
      ],
      "matrix": [
        1.0,
        0.0,
        -0.0,
        0.0,
        0.0,
        1.0,
        0.0,
        0.0,
        0.0,
        0.0,
        1.0,
        0.0,
        -1.3067042827606201,
        -0.303546667098999,
        0.7508331537246704,
        1.0
      ],
      "name": "Object_19"
    },
    {
      "mesh": 5,
      "name": "Illinois90_Body_Glass_UCB_Lights_and_Glass_Transperent_0"
    },
    {
      "children": [
        22
      ],
      "matrix": [
        -1.5031000375747374,
        -2.0458252494860746e-07,
        2.2696179930771516e-07,
        0.0,
        -2.1265016748863588e-07,
        1.5623739957809095,
        -2.545430084170066e-07,
        0.0,
        -1.825836536121438e-07,
        -1.9700320992358747e-07,
        -1.209197044372529,
        0.0,
        -2.135573387145996,
        0.4264734983444214,
        3.0590706501243403e-07,
        1.0
      ],
      "name": "Illinois90_Bumper_rear"
    },
    {
      "children": [
        23
      ],
      "matrix": [
        1.0,
        0.0,
        -0.0,
        0.0,
        0.0,
        1.0,
        0.0,
        0.0,
        0.0,
        0.0,
        1.0,
        0.0,
        -2.134644031524658,
        0.14537540078163147,
        0.7508330941200256,
        1.0
      ],
      "name": "Object_22"
    },
    {
      "mesh": 6,
      "name": "Illinois90_Bumper_rear_Illinois90_Bodymat_0"
    },
    {
      "children": [
        25
      ],
      "matrix": [
        -1.5031000375747408,
        -1.753564184185349e-07,
        2.2696179930771564e-07,
        0.0,
        -1.8227154484274526e-07,
        1.5623739957809135,
        -2.5454301327384064e-07,
        0.0,
        -1.8258365744265176e-07,
        -1.970032101323911e-07,
        -1.2091970443725288,
        0.0,
        -2.3403544425964355,
        0.6722453832626343,
        6.218327825990855e-07,
        1.0
      ],
      "name": "Illinois90_Taillights_glass"
    },
    {
      "children": [
        26
      ],
      "matrix": [
        1.0,
        0.0,
        -0.0,
        0.0,
        0.0,
        1.0,
        0.0,
        0.0,
        0.0,
        0.0,
        1.0,
        0.0,
        -2.558492660522461,
        -0.011931400746107101,
        0.7508333921432495,
        1.0
      ],
      "name": "Object_25"
    },
    {
      "mesh": 7,
      "name": "Illinois90_Taillights_glass_UCB_Lights_and_Glass_Transperent_0"
    },
    {
      "children": [
        28
      ],
      "matrix": [
        -1.5031000375747228,
        -2.9226067298862403e-07,
        2.2696180331277596e-07,
        0.0,
        -3.037858571111155e-07,
        1.5623739957808944,
        -2.5454299454033794e-07,
        0.0,
        -1.8258364534259023e-07,
        -1.9700320983414717e-07,
        -1.2091970443725288,
        0.0,
        -2.446213722229004,
        0.6909986734390259,
        6.310872322501382e-07,
        1.0
      ],
      "name": "Illinois90_Reverse"
    },
    {
      "children": [
        29
      ],
      "matrix": [
        1.0,
        0.0,
        -0.0,
        0.0,
        0.0,
        1.0,
        0.0,
        0.0,
        0.0,
        0.0,
        1.0,
        0.0,
        -2.6289196014404297,
        -0.02393440157175064,
        0.7508333325386047,
        1.0
      ],
      "name": "Object_28"
    },
    {
      "mesh": 8,
      "name": "Illinois90_Reverse_UCB_Lights_and_Glass_Transperent_0"
    },
    {
      "children": [
        31
      ],
      "matrix": [
        -1.5031000375747374,
        -2.0458252494860746e-07,
        2.2696179930771516e-07,
        0.0,
        -2.1265016748863588e-07,
        1.5623739957809095,
        -2.545430084170066e-07,
        0.0,
        -1.825836536121438e-07,
        -1.9700320992358747e-07,
        -1.209197044372529,
        0.0,
        1.6149861812591553,
        0.8708928823471069,
        1.5683664855714596e-07,
        1.0
      ],
      "name": "Illinois90_Hood"
    },
    {
      "children": [
        32
      ],
      "matrix": [
        1.0,
        0.0,
        -0.0,
        0.0,
        0.0,
        1.0,
        0.0,
        0.0,
        0.0,
        0.0,
        1.0,
        0.0,
        0.3605729639530182,
        -0.13907526433467865,
        0.7508333921432495,
        1.0
      ],
      "name": "Object_31"
    },
    {
      "mesh": 9,
      "name": "Illinois90_Hood_Illinois90_Bodymat_0"
    },
    {
      "children": [
        34
      ],
      "matrix": [
        -1.5031000375747374,
        -2.0458252494860746e-07,
        2.2696179930771516e-07,
        0.0,
        -2.1265016748863588e-07,
        1.5623739957809095,
        -2.545430084170066e-07,
        0.0,
        -1.825836536121438e-07,
        -1.9700320992358747e-07,
        -1.209197044372529,
        0.0,
        -2.0857629776000977,
        0.7887958288192749,
        2.419478164483735e-07,
        1.0
      ],
      "name": "Illinois90_Trunkdoor_inner"
    },
    {
      "children": [
        35
      ],
      "matrix": [
        1.0,
        0.0,
        -0.0,
        0.0,
        0.0,
        1.0,
        0.0,
        0.0,
        0.0,
        0.0,
        1.0,
        0.0,
        -2.1015052795410156,
        -0.08652924001216888,
        0.7508332133293152,
        1.0
      ],
      "name": "Object_34"
    },
    {
      "mesh": 10,
      "name": "Illinois90_Trunkdoor_inner_UCB_BOTTOM_0"
    },
    {
      "children": [
        37
      ],
      "matrix": [
        -1.5031000375747374,
        -2.0458252494860746e-07,
        2.2696179930771516e-07,
        0.0,
        -2.1265016748863588e-07,
        1.5623739957809095,
        -2.545430084170066e-07,
        0.0,
        -1.825836536121438e-07,
        -1.9700320992358747e-07,
        -1.209197044372529,
        0.0,
        -2.0857629776000977,
        0.7887958288192749,
        2.419478164483735e-07,
        1.0
      ],
      "name": "Illinois90_Trunkdoor"
    },
    {
      "children": [
        38
      ],
      "matrix": [
        1.0,
        0.0,
        -0.0,
        0.0,
        0.0,
        1.0,
        0.0,
        0.0,
        0.0,
        0.0,
        1.0,
        0.0,
        -2.1015055179595947,
        -0.08652924001216888,
        0.7508331537246704,
        1.0
      ],
      "name": "Object_37"
    },
    {
      "mesh": 11,
      "name": "Illinois90_Trunkdoor_Illinois90_Bodymat_0"
    },
    {
      "children": [
        40
      ],
      "matrix": [
        -1.5031000375747408,
        -1.753564184185349e-07,
        2.2696179930771564e-07,
        0.0,
        -1.8227154484274526e-07,
        1.5623739957809135,
        -2.5454301327384064e-07,
        0.0,
        -1.8258365744265176e-07,
        -1.970032101323911e-07,
        -1.2091970443725288,
        0.0,
        -0.3397047519683838,
        0.8620312213897705,
        3.873258265230106e-07,
        1.0
      ],
      "name": "Illinois90_Interior"
    },
    {
      "children": [
        41
      ],
      "matrix": [
        1.0,
        0.0,
        -0.0,
        0.0,
        0.0,
        1.0,
        0.0,
        0.0,
        0.0,
        0.0,
        1.0,
        0.0,
        -0.9398670792579651,
        -0.13340350985527039,
        0.7508334517478943,
        1.0
      ],
      "name": "Object_40"
    },
    {
      "mesh": 12,
      "name": "Illinois90_Interior_UCB_Interiors_2_0"
    },
    {
      "children": [
        43
      ],
      "matrix": [
        -1.5031000375747408,
        -1.753564184185349e-07,
        2.2696179930771564e-07,
        0.0,
        -1.8227154484274526e-07,
        1.5623739957809135,
        -2.5454301327384064e-07,
        0.0,
        -1.8258365744265176e-07,
        -1.970032101323911e-07,
        -1.2091970443725288,
        0.0,
        0.6373265981674194,
        1.1295225620269775,
        6.349242198666616e-08,
        1.0
      ],
      "name": "Illinois90_Windshield"
    },
    {
      "children": [
        44
      ],
      "matrix": [
        1.0,
        0.0,
        -0.0,
        0.0,
        0.0,
        1.0,
        0.0,
        0.0,
        0.0,
        0.0,
        1.0,
        0.0,
        -0.2898560166358948,
        -0.3046116530895233,
        0.75083327293396,
        1.0
      ],
      "name": "Object_43"
    },
    {
      "mesh": 13,
      "name": "Illinois90_Windshield_UCB_Lights_and_Glass_Transperent_0"
    },
    {
      "children": [
        46
      ],
      "matrix": [
        -1.5031000375747408,
        -1.753564184185349e-07,
        2.2696179930771564e-07,
        0.0,
        -1.8227154484274526e-07,
        1.5623739957809135,
        -2.5454301327384064e-07,
        0.0,
        -1.8258365744265176e-07,
        -1.970032101323911e-07,
        -1.2091970443725288,
        0.0,
        -2.1401166915893555,
        0.42647385597229004,
        3.063042299800145e-07,
        1.0
      ],
      "name": "Illinois90_Bumper_rear_inner"
    },
    {
      "children": [
        47
      ],
      "matrix": [
        1.0,
        0.0,
        -0.0,
        0.0,
        0.0,
        1.0,
        0.0,
        0.0,
        0.0,
        0.0,
        1.0,
        0.0,
        -2.974949359893799,
        0.1453753113746643,
        0.7508330941200256,
        1.0
      ],
      "name": "Object_46"
    },
    {
      "mesh": 14,
      "name": "Illinois90_Bumper_rear_inner_UCB_BOTTOM_0"
    },
    {
      "children": [
        49
      ],
      "matrix": [
        -1.5031000375747408,
        -1.753564184185349e-07,
        2.2696179930771564e-07,
        0.0,
        -1.8227154484274526e-07,
        1.5623739957809135,
        -2.5454301327384064e-07,
        0.0,
        -1.8258365744265176e-07,
        -1.970032101323911e-07,
        -1.2091970443725288,
        0.0,
        2.2401905059814453,
        0.427776962518692,
        -7.663437884275481e-08,
        1.0
      ],
      "name": "Illinois90_Bumper_front_inner"
    },
    {
      "children": [
        50
      ],
      "matrix": [
        1.0,
        0.0,
        -0.0,
        0.0,
        0.0,
        1.0,
        0.0,
        0.0,
        0.0,
        0.0,
        1.0,
        0.0,
        0.7765162587165833,
        0.18254666030406952,
        0.7508331537246704,
        1.0
      ],
      "name": "Object_49"
    },
    {
      "mesh": 15,
      "name": "Illinois90_Bumper_front_inner_UCB_BOTTOM_0"
    },
    {
      "children": [
        52
      ],
      "matrix": [
        -1.5031000375747408,
        -1.753564184185349e-07,
        2.2696179930771564e-07,
        0.0,
        -1.8227154484274526e-07,
        1.5623739957809135,
        -2.5454301327384064e-07,
        0.0,
        -1.8258365744265176e-07,
        -1.970032101323911e-07,
        -1.2091970443725288,
        0.0,
        -1.4595690965652466,
        1.1407380104064941,
        2.468088666773838e-07,
        1.0
      ],
      "name": "Illinois90_Rear_Glass"
    },
    {
      "children": [
        53
      ],
      "matrix": [
        1.0,
        0.0,
        -0.0,
        0.0,
        0.0,
        1.0,
        0.0,
        0.0,
        0.0,
        0.0,
        1.0,
        0.0,
        -1.684903860092163,
        -0.3117902874946594,
        0.75083327293396,
        1.0
      ],
      "name": "Object_52"
    },
    {
      "mesh": 16,
      "name": "Illinois90_Rear_Glass_UCB_Lights_and_Glass_Transperent_0"
    },
    {
      "children": [
        55
      ],
      "matrix": [
        -1.5031000375747374,
        -2.0458252494860746e-07,
        2.2696179930771516e-07,
        0.0,
        -2.1265016748863588e-07,
        1.5623739957809095,
        -2.545430084170066e-07,
        0.0,
        -1.825836536121438e-07,
        -1.9700320992358747e-07,
        -1.209197044372529,
        0.0,
        0.11785084009170532,
        1.1253238916397095,
        -0.7528825402259827,
        1.0
      ],
      "name": "Illinois90_glass_Driver"
    },
    {
      "children": [
        56
      ],
      "matrix": [
        1.0,
        0.0,
        -0.0,
        0.0,
        0.0,
        1.0,
        0.0,
        0.0,
        0.0,
        0.0,
        1.0,
        0.0,
        -0.6354590654373169,
        -0.30192434787750244,
        0.12820279598236084,
        1.0
      ],
      "name": "Object_55"
    },
    {
      "mesh": 17,
      "name": "Illinois90_glass_Driver_UCB_Lights_and_Glass_Transperent_0"
    },
    {
      "children": [
        58
      ],
      "matrix": [
        -1.5031000375747374,
        -2.0458252494860746e-07,
        2.2696179930771516e-07,
        0.0,
        -2.1265016748863588e-07,
        1.5623739957809095,
        -2.545430084170066e-07,
        0.0,
        -1.825836536121438e-07,
        -1.9700320992358747e-07,
        -1.209197044372529,
        0.0,
        0.11785078048706055,
        1.125324010848999,
        0.752882719039917,
        1.0
      ],
      "name": "Illinois90_Glass_Passenger"
    },
    {
      "children": [
        59
      ],
      "matrix": [
        1.0,
        0.0,
        -0.0,
        0.0,
        0.0,
        1.0,
        0.0,
        0.0,
        0.0,
        0.0,
        1.0,
        0.0,
        -0.6354591846466064,
        -0.30192428827285767,
        1.373463749885559,
        1.0
      ],
      "name": "Object_58"
    },
    {
      "mesh": 18,
      "name": "Illinois90_Glass_Passenger_UCB_Lights_and_Glass_Transperent_0"
    },
    {
      "children": [
        61
      ],
      "matrix": [
        -1.5031000375747408,
        -1.753564184185349e-07,
        2.2696179930771564e-07,
        0.0,
        -1.8227154484274526e-07,
        1.5623739957809135,
        -2.5454301327384064e-07,
        0.0,
        -1.8258365744265176e-07,
        -1.970032101323911e-07,
        -1.2091970443725288,
        0.0,
        0.4881448745727539,
        0.8474177122116089,
        -0.3889223337173462,
        1.0
      ],
      "name": "Illinois90_Steering_Wheel"
    },
    {
      "children": [
        62
      ],
      "matrix": [
        1.0,
        0.0,
        -0.0,
        0.0,
        0.0,
        1.0,
        0.0,
        0.0,
        0.0,
        0.0,
        1.0,
        0.0,
        -0.3891054391860962,
        -0.12405012547969818,
        0.42919614911079407,
        1.0
      ],
      "name": "Object_61"
    },
    {
      "mesh": 19,
      "name": "Illinois90_Steering_Wheel_UCB_Interiors_2_0"
    },
    {
      "children": [
        64
      ],
      "matrix": [
        -1.5031000375747374,
        -2.0458252494860746e-07,
        2.2696179930771516e-07,
        0.0,
        -2.1265016748863588e-07,
        1.5623739957809095,
        -2.545430084170066e-07,
        0.0,
        -1.825836536121438e-07,
        -1.9700320992358747e-07,
        -1.209197044372529,
        0.0,
        2.345898151397705,
        0.6620124578475952,
        2.1214759726717602e-07,
        1.0
      ],
      "name": "Illinois90_Headlights"
    },
    {
      "children": [
        65
      ],
      "matrix": [
        1.0,
        0.0,
        -0.0,
        0.0,
        0.0,
        1.0,
        0.0,
        0.0,
        0.0,
        0.0,
        1.0,
        0.0,
        0.8468427062034607,
        -0.005381107330322266,
        0.7508333921432495,
        1.0
      ],
      "name": "Object_64"
    },
    {
      "mesh": 20,
      "name": "Illinois90_Headlights_UCB_Lights_and_Glass_0"
    },
    {
      "children": [
        67
      ],
      "matrix": [
        -1.5031000375747374,
        -2.0458252494860746e-07,
        2.2696179930771516e-07,
        0.0,
        -2.1265016748863588e-07,
        1.5623739957809095,
        -2.545430084170066e-07,
        0.0,
        -1.825836536121438e-07,
        -1.9700320992358747e-07,
        -1.209197044372529,
        0.0,
        -0.07451498508453369,
        0.6517781019210815,
        6.611895742025808e-08,
        1.0
      ],
      "name": "Illinois90_Blinkers"
    },
    {
      "children": [
        68
      ],
      "matrix": [
        1.0,
        0.0,
        -0.0,
        0.0,
        0.0,
        1.0,
        0.0,
        0.0,
        0.0,
        0.0,
        1.0,
        0.0,
        -0.7634384632110596,
        0.0011692792177200317,
        0.7508330941200256,
        1.0
      ],
      "name": "Object_67"
    },
    {
      "mesh": 21,
      "name": "Illinois90_Blinkers_UCB_Lights_and_Glass_0"
    },
    {
      "children": [
        70
      ],
      "matrix": [
        -1.5031000375747408,
        -1.753564184185349e-07,
        2.2696179930771564e-07,
        0.0,
        -1.8227154484274526e-07,
        1.5623739957809135,
        -2.5454301327384064e-07,
        0.0,
        -1.8258365744265176e-07,
        -1.970032101323911e-07,
        -1.2091970443725288,
        0.0,
        -2.4409990310668945,
        0.6909984350204468,
        5.11422172166931e-07,
        1.0
      ],
      "name": "Illinois90_Reverse"
    },
    {
      "children": [
        71
      ],
      "matrix": [
        1.0,
        0.0,
        -0.0,
        0.0,
        0.0,
        1.0,
        0.0,
        0.0,
        0.0,
        0.0,
        1.0,
        0.0,
        -2.625450849533081,
        -0.023934364318847656,
        0.75083327293396,
        1.0
      ],
      "name": "Object_70"
    },
    {
      "mesh": 22,
      "name": "Illinois90_Reverse_UCB_Lights_and_Glass_0"
    },
    {
      "children": [
        73
      ],
      "matrix": [
        -1.5031000375747374,
        -2.0458252494860746e-07,
        2.2696179930771516e-07,
        0.0,
        -2.1265016748863588e-07,
        1.5623739957809095,
        -2.545430084170066e-07,
        0.0,
        -1.825836536121438e-07,
        -1.9700320992358747e-07,
        -1.209197044372529,
        0.0,
        -2.344163417816162,
        0.6973189115524292,
        3.837471922452096e-07,
        1.0
      ],
      "name": "Illinois90_Brakelights"
    },
    {
      "children": [
        74
      ],
      "matrix": [
        1.0,
        0.0,
        -0.0,
        0.0,
        0.0,
        1.0,
        0.0,
        0.0,
        0.0,
        0.0,
        1.0,
        0.0,
        -2.2734172344207764,
        -0.02797938510775566,
        0.7508331537246704,
        1.0
      ],
      "name": "Object_73"
    },
    {
      "mesh": 23,
      "name": "Illinois90_Brakelights_UCB_Lights_and_Glass_0"
    },
    {
      "children": [
        76
      ],
      "matrix": [
        3.799719903187715e-09,
        0.0,
        -0.31863799691200256,
        0.0,
        -0.34009599685668945,
        3.775824062931415e-17,
        -4.055603998236649e-09,
        0.0,
        5.663736094397122e-17,
        0.34009599685668945,
        0.0,
        0.0,
        1.5228731632232666,
        0.3219648599624634,
        -0.7731221318244934,
        1.0
      ],
      "name": "Illinois90_WheelStock_FL"
    },
    {
      "children": [
        77
      ],
      "matrix": [
        1.0,
        0.0,
        -0.0,
        0.0,
        0.0,
        1.0,
        0.0,
        0.0,
        0.0,
        0.0,
        1.0,
        0.0,
        -0.3851967751979828,
        -8.172608067980036e-05,
        -1.5258792984695901e-07,
        1.0
      ],
      "name": "Object_76"
    },
    {
      "mesh": 24,
      "name": "Illinois90_WheelStock_FL_RB1c_Tire_1k_0"
    },
    {
      "children": [
        79
      ],
      "matrix": [
        3.799719903187715e-09,
        0.0,
        -0.31863799691200256,
        0.0,
        -0.34009599685668945,
        3.775824062931415e-17,
        -4.055603998236649e-09,
        0.0,
        5.663736094397122e-17,
        0.34009599685668945,
        0.0,
        0.0,
        -1.3325226306915283,
        0.3219648599624634,
        -0.7731218934059143,
        1.0
      ],
      "name": "Illinois90_WheelStock_RL"
    },
    {
      "children": [
        80
      ],
      "matrix": [
        1.0,
        0.0,
        -0.0,
        0.0,
        0.0,
        1.0,
        0.0,
        0.0,
        0.0,
        0.0,
        1.0,
        0.0,
        -0.3851967751979828,
        -8.172608067980036e-05,
        -1.5258792984695901e-07,
        1.0
      ],
      "name": "Object_79"
    },
    {
      "mesh": 25,
      "name": "Illinois90_WheelStock_RL_RB1c_Tire_1k_0"
    },
    {
      "children": [
        82
      ],
      "matrix": [
        2.8114174096150524e-08,
        5.3063886103821716e-17,
        0.3186379969120013,
        0.0,
        -0.3400959968566881,
        1.1327472188794245e-16,
        3.000746349048197e-08,
        0.0,
        -9.439560157328537e-17,
        -0.34009599685668945,
        7.55164812586283e-17,
        0.0,
        -1.3325226306915283,
        0.32196474075317383,
        0.7729999423027039,
        1.0
      ],
      "name": "Illinois90_WheelStock_RR"
    },
    {
      "children": [
        83
      ],
      "matrix": [
        1.0,
        0.0,
        -0.0,
        0.0,
        0.0,
        1.0,
        0.0,
        0.0,
        0.0,
        0.0,
        1.0,
        0.0,
        -0.3851967751979828,
        -8.172608067980036e-05,
        -1.525879156361043e-07,
        1.0
      ],
      "name": "Object_82"
    },
    {
      "mesh": 26,
      "name": "Illinois90_WheelStock_RR_RB1c_Tire_1k_0"
    },
    {
      "children": [
        85
      ],
      "matrix": [
        2.8114174096150524e-08,
        5.3063886103821716e-17,
        0.3186379969120013,
        0.0,
        -0.3400959968566881,
        1.1327472188794245e-16,
        3.000746349048197e-08,
        0.0,
        -9.439560157328537e-17,
        -0.34009599685668945,
        7.55164812586283e-17,
        0.0,
        1.5228731632232666,
        0.32196474075317383,
        0.7729999423027039,
        1.0
      ],
      "name": "Illinois90_WheelStock_FR"
    },
    {
      "children": [
        86
      ],
      "matrix": [
        1.0,
        0.0,
        -0.0,
        0.0,
        0.0,
        1.0,
        0.0,
        0.0,
        0.0,
        0.0,
        1.0,
        0.0,
        -0.3851967751979828,
        -8.172608067980036e-05,
        -1.525879156361043e-07,
        1.0
      ],
      "name": "Object_85"
    },
    {
      "mesh": 27,
      "name": "Illinois90_WheelStock_FR_RB1c_Tire_1k_0"
    },
    {
      "children": [
        88
      ],
      "matrix": [
        3.209954824168193e-08,
        0.0,
        0.9999999999999994,
        0.0,
        0.25881894880749595,
        0.9659258520912373,
        -8.307971338661346e-09,
        0.0,
        -0.9659258520912367,
        0.2588189488074961,
        3.1005783496240724e-08,
        0.0,
        -2.422990322113037,
        0.7050938606262207,
        1.8202221951924002e-07,
        1.0
      ],
      "name": "Illinois90_Trunkdoor_Numberplates"
    },
    {
      "children": [
        89
      ],
      "matrix": [
        1.0,
        0.0,
        -0.0,
        0.0,
        0.0,
        1.0,
        0.0,
        0.0,
        0.0,
        0.0,
        1.0,
        0.0,
        0.4921662211418152,
        -0.4848645031452179,
        -0.0021451872307807207,
        1.0
      ],
      "name": "Object_88"
    },
    {
      "mesh": 28,
      "name": "Illinois90_Trunkdoor_Numberplates_Numberplates_Misk_U_0"
    },
    {
      "children": [
        91
      ],
      "matrix": [
        0.2828685926076514,
        -2.7939674109023205e-08,
        -0.9591586726481525,
        0.0,
        0.08359644942314162,
        0.9961946748301009,
        0.024653670801599012,
        0.0,
        0.9555087613203819,
        -0.08715600862905959,
        0.28179218796808514,
        0.0,
        2.463857650756836,
        0.44540560245513916,
        0.5321131944656372,
        1.0
      ],
      "name": "Illinois90_Numberplate_front"
    },
    {
      "children": [
        92
      ],
      "matrix": [
        1.0,
        0.0,
        -0.0,
        0.0,
        0.0,
        1.0,
        0.0,
        0.0,
        0.0,
        0.0,
        1.0,
        0.0,
        0.4921661615371704,
        -0.4848644733428955,
        -0.0021454207599163055,
        1.0
      ],
      "name": "Object_91"
    },
    {
      "mesh": 29,
      "name": "Illinois90_Numberplate_front_Numberplates_Misk_U_0"
    },
    {
      "children": [
        94
      ],
      "matrix": [
        2.8772666788224262e-08,
        0.0,
        0.4733450114727012,
        0.0,
        -7.711769103708977e-08,
        0.4733450114726957,
        4.687662436258549e-15,
        0.0,
        -0.47334501147269487,
        -7.711769103708991e-08,
        2.8772666788224262e-08,
        0.0,
        -2.3995165824890137,
        0.8310565948486328,
        -0.0011706638615578413,
        1.0
      ],
      "name": "Illinois90_Trunkdoor_Badges"
    },
    {
      "children": [
        95
      ],
      "matrix": [
        1.0,
        0.0,
        -0.0,
        0.0,
        0.0,
        1.0,
        0.0,
        0.0,
        0.0,
        0.0,
        1.0,
        0.0,
        0.5226558446884155,
        4.397676944732666,
        0.5776672959327698,
        1.0
      ],
      "name": "Object_94"
    },
    {
      "mesh": 30,
      "name": "Illinois90_Trunkdoor_Badges_Carbadges_misc_U_0"
    },
    {
      "children": [
        97
      ],
      "matrix": [
        -0.1105185555804218,
        -2.3703872921776773e-17,
        -0.4124609728473507,
        0.0,
        -0.4124609728473507,
        4.7407745843553546e-17,
        0.11051855558042187,
        0.0,
        -2.3703872921776773e-17,
        0.42701101303100575,
        4.7407745843553546e-17,
        0.0,
        2.2692055702209473,
        0.7665500640869141,
        -0.5902436375617981,
        1.0
      ],
      "name": "Illinois90_Body_Badges"
    },
    {
      "children": [
        98
      ],
      "matrix": [
        1.0,
        0.0,
        -0.0,
        0.0,
        0.0,
        1.0,
        0.0,
        0.0,
        0.0,
        0.0,
        1.0,
        0.0,
        -0.7143354415893555,
        4.439233779907227,
        0.043197184801101685,
        1.0
      ],
      "name": "Object_97"
    },
    {
      "mesh": 31,
      "name": "Illinois90_Body_Badges_Carbadges_misc_U_0"
    }
  ],
  "samplers": [
    {
      "magFilter": 9729,
      "minFilter": 9987,
      "wrapS": 10497,
      "wrapT": 10497
    }
  ],
  "scene": 0,
  "scenes": [
    {
      "name": "Sketchfab_Scene",
      "nodes": [
        0
      ]
    }
  ],
  "textures": [
    {
      "sampler": 0,
      "source": 0
    },
    {
      "sampler": 0,
      "source": 1
    },
    {
      "sampler": 0,
      "source": 2
    },
    {
      "sampler": 0,
      "source": 3
    },
    {
      "sampler": 0,
      "source": 4
    },
    {
      "sampler": 0,
      "source": 5
    },
    {
      "sampler": 0,
      "source": 6
    },
    {
      "sampler": 0,
      "source": 7
    },
    {
      "sampler": 0,
      "source": 8
    },
    {
      "sampler": 0,
      "source": 9
    },
    {
      "sampler": 0,
      "source": 10
    },
    {
      "sampler": 0,
      "source": 11
    },
    {
      "sampler": 0,
      "source": 12
    }
  ]
}
